<?xml version="1.0" encoding="UTF-8" standalone="yes"?>
<svg
   version="1.1"
   width="256"
   height="256"
   viewBox="0 0 256 256"
   xml:space="preserve"
   xmlns="http://www.w3.org/2000/svg"
   xmlns:svg="http://www.w3.org/2000/svg">
<g
 transform="matrix(0.04,0,0,-0.04,127.74,86.04)"
 id="g39">
<path
       style="opacity:1;fill:#fff100;fill-rule:nonzero;stroke:none"
       transform="translate(-2347.45,-3324.58)"
       d="M 2175,4703 C 1877,4677 1594,4598 1325,4465 1090,4349 918,4228 726,4041 587,3906 486,3785 390,3639 170,3307 46,2948 9,2540 l -12,-134 69,-64 c 186,-170 460,-307 729,-366 344,-75 710,-33 1030,118 169,80 280,157 450,311 279,253 488,378 774,462 456,133 913,96 1336,-107 66,-32 158,-83 204,-114 126,-84 131,-71 74,199 -175,839 -840,1542 -1683,1780 -242,68 -563,99 -805,78 z"
       id="sun" />
</g><g
 transform="matrix(0.04,0,0,-0.04,128.75,170.31)"
 id="g43">
<path
       style="opacity:1;fill:#0056ff;fill-rule:nonzero;stroke:none"
       transform="translate(-2370.82,-1382.05)"
       d="m 3480,2753 c -223,-13 -468,-85 -673,-197 -119,-65 -221,-140 -371,-275 -145,-130 -216,-186 -323,-254 -402,-258 -945,-344 -1418,-226 -188,47 -421,149 -570,249 -42,28 -80,48 -87,44 -14,-9 -5,-97 28,-243 C 178,1345 458,886 860,551 1200,267 1589,93 2040,24 c 160,-25 480,-25 645,0 517,79 961,302 1326,666 424,422 646,916 694,1540 l 5,75 -72,61 c -211,177 -451,296 -715,354 -78,17 -345,44 -378,38 -5,-1 -35,-3 -65,-5 z"
       id="water" />
</g>
</svg>
